# xmcd CD database file
#
# Track frame offsets:
#	150
#	43538
#	63411
#	84337
#	112899
#	150452
#	179210
#	198839
#	226867
#
# Disc length: 3384 seconds
#
# Revision: 0
# Processed by: cddbd v1.5.2PL0 Copyright (c) Steve Scherf et al.
# Submitted via: CDex 1.51
#
DISCID=680d3609
DTITLE=Dave Douglas Quintet - Live From 92Y Tribeca [1|2]
DYEAR=2012
DGENRE=Jazz
TTITLE0=Dave Douglas Quintet - Going Somewhere With You (Douglas)
TTITLE1=Dave Douglas Quintet - This Is My Father's World (Traditional)
TTITLE2=Dave Douglas Quintet - Barbara Allen (Traditional)
TTITLE3=Dave Douglas Quintet - Don't Come Again (Traditional)
TTITLE4=Dave Douglas Quintet - Middle March (Douglas)
TTITLE5=Dave Douglas Quintet - The Turkey And The Straw Man (Douglas)
TTITLE6=Dave Douglas Quintet - High On A Mountain (Ola Belle Reed)
TTITLE7=Dave Douglas Quintet - Glowing Heart (O'Donovan)
TTITLE8=Dave Douglas Quintet - Be Still My Soul (Sibelius, arr. Douglas)
EXTD=YEAR: 2012
EXTT0=
EXTT1=
EXTT2=
EXTT3=
EXTT4=
EXTT5=
EXTT6=
EXTT7=
EXTT8=
PLAYORDER=
